<svg width="41.82371139526367px" height="43.07750091552734px" xmlns="http://www.w3.org/2000/svg" viewBox="229.08814430236816 53.46124954223633 41.82371139526367 43.07750091552734" style="background:#051103" preserveAspectRatio="xMidYMid"><defs><linearGradient id="editing-glowing-gradient" x1="0.9996954135095479" x2="0.00030458649045211894" y1="0.5174497483512505" y2="0.48255025164874954"><stop offset="0" stop-color="#67ff43"></stop><stop offset="1" stop-color="#90ffff"></stop></linearGradient><filter id="editing-glowing" x="-100%" y="-100%" width="300%" height="300%"><feGaussianBlur in="SourceGraphic" result="blur" stdDeviation="6"></feGaussianBlur><feMerge><feMergeNode in="blur"></feMergeNode><feMergeNode in="SourceGraphic"></feMergeNode></feMerge></filter></defs><g filter="url(#editing-glowing)"><g transform="translate(243.01531252264977, 80.94499969482422)"><path d="M5.89-0.32L5.89-0.32Q5.49-0.26 5.01-0.18L5.01-0.18L5.01-0.18Q4.53-0.10 4.14-0.03L4.14-0.03L4.14-0.03Q4.21-0.56 4.27-1.07L4.27-1.07L4.27-1.07Q4.32-1.52 4.36-1.97L4.36-1.97L4.36-1.97Q4.40-2.42 4.43-2.74L4.43-2.74L3.04-2.74L2.40-0.43L2.40-0.43Q2.05-0.38 1.57-0.33L1.57-0.33L1.57-0.33Q1.09-0.27 0.67-0.22L0.67-0.22L0.67-0.22Q0.16-0.16-0.34-0.10L-0.34-0.10L-0.34-0.10Q0.30-2.22 0.93-4.29L0.93-4.29L0.93-4.29Q1.18-5.15 1.46-6.10L1.46-6.10L1.46-6.10Q1.74-7.04 2.02-7.98L2.02-7.98L2.02-7.98Q2.30-8.91 2.56-9.78L2.56-9.78L2.56-9.78Q2.82-10.64 3.01-11.36L3.01-11.36L3.01-11.36Q4.10-11.44 5.22-11.55L5.22-11.55L5.22-11.55Q6.35-11.66 7.42-11.86L7.42-11.86L7.42-11.86Q7.38-11.34 7.32-10.58L7.32-10.58L7.32-10.58Q7.26-9.82 7.22-8.93L7.22-8.93L7.22-8.93Q7.17-8.03 7.12-7.06L7.12-7.06L7.12-7.06Q7.07-6.08 7.02-5.14L7.02-5.14L7.02-5.14Q6.94-2.93 6.85-0.45L6.85-0.45L6.85-0.45Q6.37-0.37 5.89-0.32L5.89-0.32ZM4.42-8.35L3.42-4.34L3.42-4.34Q3.49-4.34 3.66-4.34L3.66-4.34L3.66-4.34Q3.82-4.35 4.01-4.36L4.01-4.36L4.01-4.36Q4.19-4.37 4.35-4.38L4.35-4.38L4.35-4.38Q4.51-4.38 4.58-4.40L4.58-4.40L4.58-4.40Q4.58-4.50 4.60-4.73L4.60-4.73L4.60-4.73Q4.62-4.96 4.65-5.26L4.65-5.26L4.65-5.26Q4.67-5.55 4.70-5.90L4.70-5.90L4.70-5.90Q4.74-6.26 4.77-6.59L4.77-6.59L4.77-6.59Q4.83-7.41 4.93-8.35L4.93-8.35L5.02-9.74L4.78-9.73L4.42-8.35ZM14.02-3.95L14.02-3.95Q14.02-3.06 13.67-2.33L13.67-2.33L13.67-2.33Q13.33-1.60 12.74-1.07L12.74-1.07L12.74-1.07Q12.16-0.54 11.37-0.26L11.37-0.26L11.37-0.26Q10.58 0.03 9.66 0.03L9.66 0.03L9.66 0.03Q9.02 0.03 8.38-0.31L8.38-0.31L8.38-0.31Q7.74-0.66 7.15-1.41L7.15-1.41L8.34-3.73L8.34-3.73Q8.45-3.52 8.67-3.30L8.67-3.30L8.67-3.30Q8.90-3.09 9.18-2.93L9.18-2.93L9.18-2.93Q9.46-2.77 9.74-2.66L9.74-2.66L9.74-2.66Q10.02-2.56 10.24-2.56L10.24-2.56L10.24-2.56Q10.43-2.56 10.64-2.62L10.64-2.62L10.64-2.62Q10.85-2.69 11.02-2.82L11.02-2.82L11.02-2.82Q11.20-2.94 11.30-3.11L11.30-3.11L11.30-3.11Q11.41-3.28 11.41-3.50L11.41-3.50L11.41-3.50Q11.41-3.89 11.16-4.22L11.16-4.22L11.16-4.22Q10.91-4.54 10.54-4.84L10.54-4.84L10.54-4.84Q10.18-5.14 9.74-5.44L9.74-5.44L9.74-5.44Q9.31-5.74 8.95-6.08L8.95-6.08L8.95-6.08Q8.59-6.42 8.34-6.83L8.34-6.83L8.34-6.83Q8.08-7.25 8.08-7.76L8.08-7.76L8.08-7.76Q8.08-8.59 8.58-9.31L8.58-9.31L8.58-9.31Q9.07-10.03 9.82-10.55L9.82-10.55L9.82-10.55Q10.56-11.07 11.44-11.38L11.44-11.38L11.44-11.38Q12.32-11.68 13.10-11.68L13.10-11.68L13.10-11.68Q13.54-11.68 13.92-11.58L13.92-11.58L13.92-11.58Q14.30-11.47 14.58-11.24L14.58-11.24L14.58-11.24Q14.86-11.01 15.03-10.66L15.03-10.66L15.03-10.66Q15.20-10.30 15.20-9.78L15.20-9.78L15.20-9.78Q15.20-9.55 15.16-9.33L15.16-9.33L15.16-9.33Q15.12-9.10 15.09-8.85L15.09-8.85L12.77-8.18L12.77-8.18Q12.80-8.30 12.82-8.43L12.82-8.43L12.82-8.43Q12.85-8.56 12.85-8.69L12.85-8.69L12.85-8.69Q12.85-9.17 12.68-9.38L12.68-9.38L12.68-9.38Q12.51-9.60 12.24-9.60L12.24-9.60L12.24-9.60Q12.11-9.60 11.93-9.50L11.93-9.50L11.93-9.50Q11.74-9.41 11.56-9.26L11.56-9.26L11.56-9.26Q11.38-9.10 11.25-8.90L11.25-8.90L11.25-8.90Q11.12-8.69 11.12-8.45L11.12-8.45L11.12-8.45Q11.12-8.06 11.34-7.81L11.34-7.81L11.34-7.81Q11.55-7.55 11.87-7.33L11.87-7.33L11.87-7.33Q12.19-7.10 12.57-6.87L12.57-6.87L12.57-6.87Q12.94-6.64 13.26-6.27L13.26-6.27L13.26-6.27Q13.58-5.90 13.80-5.35L13.80-5.35L13.80-5.35Q14.02-4.80 14.02-3.95L14.02-3.95Z" fill="url(#editing-glowing-gradient)"></path></g></g><style>text {
  font-size: 64px;
  font-family: Arial Black;
  dominant-baseline: central;
  text-anchor: middle;
}</style></svg>